<svg width="512" height="512" viewBox="0 0 512 512" fill="none" xmlns="http://www.w3.org/2000/svg">
<g clip-path="url(#clip0_102_241)">
<path d="M436 1C443.688 1 451.375 1 459.477 1.35887C461.086 2.54162 462.206 3.50967 463.486 4.1671C476.489 10.8477 483.01 21.4299 483.008 36.0837C482.993 145.492 482.999 254.901 482.999 364.309C482.999 391.953 483.074 419.597 482.907 447.24C482.886 450.804 484.094 452.439 487.388 452.918C497.971 454.458 505.722 459.842 510.355 469.617C510.824 470.607 512.099 471.215 513 472C513 479.021 513 486.042 512.642 493.477C511.762 494.485 511.051 494.995 510.747 495.684C507.709 502.573 502.862 507.598 495.92 510.634C495.093 510.996 494.631 512.191 494 513C463.646 513 433.292 513 402.513 512.636C391.962 507.056 384.535 499.833 382.397 487.956C379.57 472.258 391.126 454.829 407.202 453.057C410.686 452.673 412.106 451.421 412.063 447.774C411.904 434.112 412.009 420.447 411.978 406.783C411.975 405.675 411.691 404.567 411.521 403.336C308.356 403.336 205.474 403.336 101.999 403.336C101.999 405.451 101.999 407.237 101.999 409.022C101.999 420.02 101.999 431.018 101.999 442.016C101.999 451.136 101.952 451.305 110.419 453.689C122.263 457.023 131.04 468.544 131.973 480.695C132.934 493.217 125.549 505.559 114.121 510.928C113.276 511.324 112.701 512.296 112 513C81.6458 513 51.2915 513 20.5229 512.642C19.5156 511.762 19.0064 511.05 18.3173 510.748C11.4137 507.723 6.4278 502.835 3.36456 495.917C2.9987 495.091 1.80824 494.63 1 494C1 486.979 1 479.958 1.35786 472.523C2.71101 470.629 3.86085 469.229 4.67575 467.656C8.95479 459.394 15.8916 454.57 24.8411 453.178C29.8363 452.401 31.1195 450.468 31.1134 445.539C30.9685 329.112 31.001 212.685 31.001 96.2585C31.0009 75.1051 30.8056 53.9491 31.0864 32.7995C31.2183 22.8658 35.8208 14.7853 43.6591 8.65934C47.0377 6.01876 50.549 3.54794 54 1C61.6876 1 69.3752 1 77.488 1.3658C78.0963 2.00064 78.2195 2.41385 78.4709 2.51814C94.9896 9.37188 102.12 22.0687 102.036 39.5822C101.899 68.0556 101.994 96.5301 102.011 125.004C102.012 126.914 102.177 128.823 102.276 130.936C108.946 130.936 114.931 130.936 121.253 131.186C164.315 131.48 207.039 131.527 249.763 131.541C250.537 131.542 251.311 131.147 252.547 130.958C259.25 130.98 265.49 130.98 272 130.98C272 128.208 272 126.385 272 124.562C272 103.901 271.995 83.2401 272.002 62.5792C272.005 54.0052 275.06 51.0032 283.776 51.0019C316.1 50.9974 348.425 50.9988 380.749 51.001C389.768 51.0017 392.989 54.215 392.995 63.277C393.008 83.7713 392.999 104.266 392.999 124.76C392.999 126.686 392.999 128.612 392.999 130.63C399.692 130.63 405.589 130.63 411.999 130.63C411.999 128.302 411.999 126.34 411.999 124.379C411.999 95.0537 411.794 65.7264 412.084 36.4041C412.235 21.1454 419.641 10.0372 433.416 3.25533C434.407 2.76727 435.144 1.76381 436 1ZM239.5 152.001C190.84 152.001 142.18 152.004 93.5203 151.998C84.5217 151.996 81.0072 148.427 81.0021 139.316C80.9943 125.484 81.009 111.653 80.9889 97.821C80.9863 96.0471 80.8321 94.2734 80.7408 92.3429C71.034 92.3429 61.8044 92.3429 52.4849 92.3429C52.4849 212.356 52.4849 332.025 52.4849 451.544C62.2051 451.544 71.4374 451.544 81.0001 451.544C81.0001 449.271 81.0001 447.453 81.0001 445.634C81.0001 428.469 80.9892 411.305 81.005 394.141C81.0128 385.657 84.6154 382.007 93.0238 382.006C202.343 381.998 311.662 381.998 420.981 382.006C429.388 382.007 432.988 385.655 432.995 394.144C433.011 411.475 432.993 428.806 433.011 446.137C433.013 447.914 433.163 449.691 433.254 451.672C442.935 451.672 452.165 451.672 461.532 451.672C461.532 331.672 461.532 212.001 461.532 92.4415C451.83 92.4415 442.597 92.4415 433 92.4415C433 108.194 433.003 123.506 432.999 138.819C432.996 148.665 429.707 151.999 419.976 151.999C360.151 152.002 300.325 152.001 239.5 152.001ZM105.4 491.215C106.902 489.756 108.983 488.564 109.805 486.789C113.044 479.795 107.722 473.051 98.9944 473.024C77.3616 472.955 55.7283 472.969 34.0956 473.052C31.9955 473.06 29.8262 473.557 27.8139 474.211C23.128 475.735 21.7056 479.306 21.9736 483.965C22.2294 488.411 24.4535 491.09 28.7252 491.937C31.4606 492.48 34.2667 492.938 37.0439 492.954C53.0185 493.049 68.9955 493.129 84.9684 492.938C91.5577 492.859 98.1388 492.094 105.4 491.215ZM461.5 493C469.277 492.673 477.09 492.694 484.816 491.883C489.066 491.437 491.727 488.393 492.012 483.749C492.316 478.798 490.514 475.33 485.482 474.044C483.739 473.599 481.949 473.051 480.179 473.046C458.355 472.978 436.531 472.934 414.708 473.034C405.767 473.075 400.416 480.598 404.393 487.509C407.126 492.26 412.197 492.88 417.02 492.937C431.512 493.109 446.006 493 461.5 493ZM344.5 71.999C327.444 71.999 310.387 71.999 293.428 71.999C293.428 78.8185 293.428 84.712 293.428 90.6299C319.731 90.6299 345.605 90.6299 371.661 90.6299C371.661 84.3654 371.661 78.4734 371.661 71.999C362.723 71.999 354.111 71.999 344.5 71.999ZM362.454 111.999C339.407 111.999 316.361 111.999 293.438 111.999C293.438 118.841 293.438 124.735 293.438 130.618C319.754 130.618 345.63 130.618 371.647 130.618C371.647 124.338 371.647 118.445 371.647 111.999C368.681 111.999 366.059 111.999 362.454 111.999ZM58.655 23.8845C54.1363 27.2163 51.5137 31.276 51.9017 37.3089C52.3387 44.1047 52.0031 50.9503 52.0034 57.7742C52.0036 62.0306 52.0034 66.287 52.0034 70.641C62.0164 70.641 71.2383 70.641 80.9996 70.641C80.9996 59.3452 81.05 48.3999 80.9861 37.4553C80.9162 25.4984 70.3185 18.6719 58.655 23.8845ZM461.997 37.6814C461.992 30.6753 457.463 23.5637 452.123 22.1762C445.23 20.385 438.301 23.1506 434.968 29.791C433.565 32.5848 433.154 36.0959 433.084 39.2981C432.859 49.6934 433 60.0966 433 70.6834C442.954 70.6834 452.162 70.6834 461.997 70.6834C461.997 59.7971 461.997 49.2166 461.997 37.6814Z" fill="#3D3D3D"/>
<path d="M121.253 131.186C120.915 97.8376 120.915 64.7388 120.915 31.0544C139.423 31.0544 157.653 31.0544 176.335 31.5682C176.79 41.4096 176.575 50.7454 176.929 60.0597C177.033 62.8248 178.152 65.9862 179.845 68.155C182.42 71.4543 186.414 71.9299 190.321 70.4147C194.701 68.7164 196.697 65.1605 196.758 60.6273C196.889 50.8019 196.853 40.9744 196.886 31.1477C215.119 31.1477 233.352 31.1477 252.01 31.1477C252.01 64.2851 252.01 97.1485 252.048 130.474C251.311 131.147 250.537 131.542 249.763 131.541C207.039 131.527 164.315 131.48 121.253 131.186Z" fill="#A3FBC4"/>
<path d="M196.432 31.0894C196.854 40.9743 196.889 50.8019 196.758 60.6272C196.697 65.1604 194.701 68.7163 190.321 70.4146C186.414 71.9299 182.42 71.4542 179.845 68.1549C178.152 65.9861 177.034 62.8247 176.929 60.0596C176.575 50.7454 176.79 41.4095 176.788 31.6245C183.184 31.1218 189.581 31.0766 196.432 31.0894Z" fill="#040689"/>
<path d="M81.0003 226C81.0004 214.502 80.9769 203.503 81.0094 192.505C81.0295 185.688 85.1899 181.37 92.002 181.015C93.1655 180.954 94.3346 181.001 95.5011 181.001C203.153 181.001 310.804 181.001 418.456 181.002C429.66 181.002 433 184.324 433 195.462C433 243.788 433.003 292.115 432.997 340.441C432.996 349.377 429.316 352.997 420.249 352.997C311.431 353 202.612 353 93.7943 352.997C84.5138 352.997 81.0022 349.421 81.0014 339.984C80.9985 302.156 81.0003 264.328 81.0003 226ZM393.974 331.97C399.888 331.97 405.801 331.97 411.564 331.97C411.564 288.167 411.564 245.277 411.564 202.386C308.248 202.386 205.369 202.386 102.352 202.386C102.352 245.663 102.352 288.552 102.352 331.672C108.602 331.672 114.498 331.672 121.001 331.672C121.001 329.402 121.001 327.451 121.001 325.501C121.001 304.839 120.978 284.178 121.013 263.516C121.027 255.177 124.197 252.005 132.37 252.004C165.195 251.996 198.02 251.999 230.845 252.001C238.739 252.002 241.989 255.199 241.995 263.044C242.009 283.872 242 304.7 242 325.528C242 327.476 242 329.424 242 331.908C249.062 331.908 255.508 331.908 262.864 332.188C305.274 332.207 347.684 332.229 390.095 332.231C391.078 332.231 392.062 332.021 393.974 331.97ZM142.001 283.463C142.001 286.203 142.001 288.943 142.001 291.59C168.809 291.59 194.686 291.59 220.62 291.59C220.62 284.947 220.62 278.721 220.62 272.326C194.363 272.326 168.486 272.326 142.001 272.326C142.001 275.917 142.001 279.201 142.001 283.463ZM219.127 331.921C219.729 331.26 220.835 330.611 220.853 329.935C220.996 324.496 220.933 319.053 220.933 313.448C194.359 313.448 168.36 313.448 142.421 313.448C142.421 319.801 142.421 325.696 142.421 331.982C167.957 331.982 193.076 331.982 219.127 331.921Z" fill="#3D3D3D"/>
<path d="M337.219 232.166C355.646 232.166 374.074 232.166 393.005 232.166C393.005 265.224 393.005 298.106 393.025 331.449C392.062 332.021 391.078 332.231 390.095 332.231C347.684 332.229 305.274 332.207 262.409 332.048C261.955 298.85 261.955 265.792 261.955 232.015C280.122 232.015 298.144 232.015 316.663 232.537C317.17 242.187 317.113 251.316 317.215 260.443C317.294 267.523 321.47 272.112 327.48 271.996C333.373 271.882 337.142 267.53 337.194 260.546C337.265 251.087 337.216 241.627 337.219 232.166Z" fill="#A4FCC4"/>
<path d="M336.74 232.112C337.216 241.626 337.265 251.087 337.194 260.546C337.142 267.53 333.373 271.882 327.48 271.996C321.47 272.112 317.295 267.523 317.215 260.443C317.113 251.316 317.17 242.187 317.134 232.603C323.493 232.118 329.877 232.088 336.74 232.112Z" fill="#050689"/>
</g>
<defs>
<clipPath id="clip0_102_241">
<rect width="512" height="512" fill="white"/>
</clipPath>
</defs>
</svg>
